<svg xmlns="http://www.w3.org/2000/svg" width="500" height="500" viewBox="0.0 0.0 500.0 500.0"><g id="firefly"><path id="25" d="M 52.909,286.982 C 52.246,286.461 52.040,285.467 52.459,284.809 C 52.804,284.264 54.559,283.483 56.250,283.121 C 58.624,282.613 60.538,282.100 61.250,281.781 C 62.029,281.433 64.806,280.736 66.082,280.569 C 66.884,280.464 67.157,280.557 67.769,281.144 C 68.171,281.529 68.500,282.028 68.500,282.253 C 68.500,282.829 67.515,283.682 66.625,283.877 C 66.213,283.968 65.537,284.191 65.125,284.373 C 63.413,285.128 62.306,285.477 61.125,285.633 C 59.998,285.782 57.567,286.624 56.441,287.256 C 55.646,287.702 53.625,287.545 52.909,286.982" stroke="#E3E0E1" fill="#E3E0E1" stroke-width="1" />
  <path id="25" d="M 147.207,277.899 C 145.689,277.719 144.619,277.463 144.332,277.211 C 143.808,276.749 141.220,275.500 140.788,275.500 C 140.630,275.500 140.500,275.385 140.500,275.245 C 140.500,275.104 140.018,274.682 139.429,274.307 C 137.529,273.098 132.785,268.031 132.260,266.650 C 132.116,266.272 131.659,265.470 131.245,264.868 C 130.831,264.266 130.427,263.402 130.348,262.949 C 130.269,262.496 129.831,261.337 129.376,260.375 C 128.904,259.376 128.473,257.981 128.371,257.125 C 128.274,256.300 128.035,255.281 127.842,254.862 C 127.648,254.442 127.375,253.429 127.234,252.612 C 127.094,251.794 126.856,250.450 126.706,249.625 C 126.348,247.662 126.382,232.705 126.750,230.375 C 126.902,229.412 127.121,227.894 127.237,227 C 127.354,226.106 127.616,224.981 127.820,224.500 C 128.023,224.019 128.271,222.951 128.370,222.127 C 128.663,219.701 129.800,217.997 130.857,218.403 C 131.411,218.615 131.348,219.403 130.608,221.530 C 129.068,225.962 128.084,239.230 128.747,246.625 C 129.094,250.492 129.768,254.756 130.154,255.532 C 130.334,255.893 130.718,257.074 131.008,258.157 C 131.298,259.239 131.687,260.406 131.874,260.750 C 132.060,261.094 132.616,262.163 133.109,263.125 C 133.602,264.087 134.395,265.438 134.873,266.125 C 136.123,267.928 140.384,272.163 141.728,272.938 C 142.359,273.302 142.965,273.746 143.075,273.925 C 143.185,274.104 143.410,274.251 143.575,274.252 C 143.740,274.252 144.213,274.434 144.625,274.654 C 145.584,275.168 148.870,275.993 149.970,275.997 C 150.435,275.998 151.691,275.760 152.763,275.466 C 154.279,275.051 154.979,274.696 155.918,273.869 C 157.107,272.822 157.414,272.352 158.526,269.875 C 159.688,267.286 160.238,262.091 159.757,258.250 C 159.594,256.944 159.380,255.088 159.282,254.125 C 159.185,253.162 158.969,252.129 158.803,251.829 C 158.636,251.529 158.501,251.079 158.502,250.829 C 158.504,250.190 157.294,245.778 156.869,244.875 C 156.674,244.463 156.275,243.450 155.981,242.625 C 155.486,241.236 153.506,236.861 152.982,236 C 152.857,235.794 152.458,235.062 152.096,234.375 C 151.734,233.688 150.805,232.190 150.031,231.048 C 149.258,229.905 148.287,228.434 147.875,227.779 C 147.463,227.124 146.819,226.202 146.445,225.731 C 146.071,225.260 145.397,224.387 144.945,223.792 C 144.494,223.196 143.703,222.249 143.188,221.689 C 142.672,221.129 142.250,220.570 142.250,220.447 C 142.250,220.214 140.800,218.635 137.917,215.727 C 136.369,214.165 136.225,213.934 136.375,213.252 C 136.465,212.839 136.680,212.500 136.851,212.500 C 137.216,212.500 138.250,211.458 138.250,211.090 C 138.250,210.951 138.542,210.564 138.899,210.231 C 139.649,209.531 140.250,208.467 140.250,207.841 C 140.250,207.602 140.464,207.175 140.726,206.891 C 141.547,206.003 142.042,203.817 142.182,200.464 C 142.298,197.705 142.246,197.077 141.779,195.539 C 141.484,194.569 141.130,193.705 140.991,193.619 C 140.852,193.534 140.416,192.753 140.023,191.885 C 139.629,191.017 139.125,190.205 138.903,190.081 C 138.428,189.815 137.500,188.083 138.112,186.086 C 138.204,185.719 138.695,184.975 139.202,184.434 C 142.269,181.163 144.420,179.250 145.030,179.250 C 145.255,179.250 146.213,178.844 147.157,178.348 C 148.783,177.494 149.043,177.438 152,177.286 C 153.719,177.197 155.266,177.034 155.438,176.923 C 155.862,176.648 155.830,175.976 155.361,175.306 C 154.996,174.785 154.786,174.750 152.042,174.750 C 150.036,174.750 148.956,174.854 148.618,175.079 C 148.347,175.260 147.619,175.546 147,175.715 C 145.465,176.135 144.898,176.413 142.925,177.710 C 140.867,179.062 138.164,181.778 136.530,184.136 C 135.169,186.099 134.647,186.317 133.250,185.505 C 131.331,184.388 127.822,182.799 126.927,182.641 C 126.406,182.549 125.465,182.253 124.836,181.983 C 123.792,181.536 123.706,181.434 123.849,180.809 C 124.641,177.323 124.614,170.242 123.803,169.040 C 123.556,168.674 123.082,167.756 122.749,167 C 121.967,165.224 119.876,163.114 117.582,161.787 C 115.610,160.647 114.794,160.511 114.157,161.215 C 113.485,161.957 113.988,162.901 115.257,163.281 C 116.453,163.640 119.750,166.547 119.750,167.243 C 119.750,167.488 119.924,167.833 120.137,168.010 C 120.350,168.187 120.772,168.848 121.075,169.478 C 121.584,170.540 121.625,170.990 121.625,175.544 C 121.625,180.154 121.592,180.507 121.099,181.169 C 120.746,181.642 120.252,181.931 119.599,182.046 C 117.989,182.329 116.412,182.849 115.757,183.312 C 115.417,183.553 115.045,183.750 114.931,183.750 C 114.513,183.750 112.362,184.827 111.875,185.280 C 109.083,187.878 108.333,188.755 107.434,190.470 C 105.907,193.387 105.756,194.126 105.753,198.681 C 105.753,198.681 105.750,202.737 105.750,202.737 C 105.750,202.737 105.013,203.119 105.013,203.119 C 104.488,203.389 103.493,203.502 101.575,203.508 C 97.312,203.520 92.969,203.908 92.125,204.352 C 91.713,204.569 91.023,204.748 90.594,204.749 C 90.165,204.749 89.377,204.902 88.844,205.088 C 88.311,205.274 87.088,205.505 86.125,205.601 C 85.162,205.697 84.037,205.946 83.625,206.154 C 82.445,206.749 80.383,207.435 79.204,207.624 C 78.611,207.720 77.751,208.013 77.293,208.277 C 76.836,208.540 75.711,208.994 74.793,209.286 C 73.876,209.577 72.956,209.950 72.750,210.113 C 72.544,210.277 71.644,210.718 70.750,211.093 C 69.856,211.468 68.956,211.884 68.750,212.016 C 68.544,212.149 67.588,212.651 66.625,213.132 C 64.816,214.037 63.806,214.647 60.346,216.919 C 54.393,220.829 48.996,226.264 47.233,230.125 C 46.919,230.812 46.476,231.656 46.247,232 C 45.667,232.873 44.995,235.452 44.830,237.446 C 44.721,238.754 44.812,239.533 45.240,240.970 C 45.925,243.268 47.225,244.749 49.964,246.353 C 52.673,247.939 54.750,248.329 59.617,248.168 C 64.269,248.013 65.815,247.752 67.811,246.786 C 68.671,246.369 69.938,245.839 70.625,245.608 C 71.312,245.377 72.143,244.977 72.471,244.719 C 72.799,244.461 73.193,244.250 73.346,244.250 C 73.683,244.250 78.237,241.427 79.597,240.375 C 81.710,238.742 86.725,234.208 88.481,232.345 C 89.502,231.262 90.993,229.691 91.794,228.856 C 92.595,228.020 93.250,227.222 93.250,227.083 C 93.250,226.944 93.702,226.333 94.255,225.727 C 96.283,223.503 99.250,219.550 99.250,219.072 C 99.250,218.949 99.639,218.423 100.115,217.904 C 100.590,217.385 101.053,216.725 101.145,216.438 C 101.236,216.150 101.691,215.321 102.156,214.595 C 102.620,213.868 103,213.199 103,213.107 C 103,213.015 103.510,211.885 104.133,210.595 C 105.171,208.446 105.326,208.250 105.981,208.250 C 106.374,208.250 106.759,208.412 106.835,208.611 C 106.993,209.023 105.610,213.185 105.127,213.750 C 104.752,214.187 103.750,216.355 103.750,216.726 C 103.750,216.866 103.539,217.182 103.282,217.428 C 103.025,217.674 102.544,218.381 102.215,219 C 101.534,220.276 99.251,223.400 97.589,225.329 C 96.975,226.042 96.230,226.906 95.933,227.250 C 95.637,227.594 94.975,228.398 94.463,229.036 C 93.950,229.674 93.270,230.475 92.953,230.815 C 92.635,231.155 91.925,231.958 91.375,232.600 C 89.605,234.666 83.378,240.750 83.033,240.750 C 82.920,240.750 82.617,240.982 82.360,241.267 C 82.103,241.550 81.129,242.291 80.196,242.911 C 79.263,243.531 78.500,244.142 78.500,244.269 C 78.500,244.396 78.290,244.500 78.034,244.500 C 77.777,244.500 77.248,244.753 76.859,245.062 C 75.409,246.213 71.058,248.342 69.618,248.605 C 69.072,248.705 68.350,248.964 68.015,249.180 C 65.992,250.485 57.524,251.200 53.663,250.392 C 51.785,249.999 47.557,247.984 46.703,247.075 C 46.406,246.758 46.058,246.500 45.930,246.500 C 45.647,246.500 44.959,245.642 43.639,243.638 C 43.639,243.638 42.642,242.125 42.642,242.125 C 42.642,242.125 42.639,238.364 42.639,238.364 C 42.636,234.474 42.897,232.970 43.781,231.801 C 44.020,231.485 44.294,230.869 44.390,230.433 C 44.486,229.996 44.859,229.198 45.220,228.659 C 45.580,228.121 46.034,227.387 46.228,227.028 C 47.218,225.200 51.730,220.355 54.547,218.095 C 55.466,217.358 56.288,216.641 56.374,216.502 C 56.459,216.363 56.728,216.250 56.971,216.250 C 57.214,216.250 57.663,215.983 57.970,215.657 C 58.276,215.331 58.943,214.853 59.451,214.595 C 59.959,214.337 60.786,213.815 61.288,213.435 C 61.791,213.056 62.522,212.605 62.913,212.433 C 63.305,212.260 64.119,211.800 64.722,211.410 C 65.326,211.019 66.170,210.583 66.597,210.440 C 67.025,210.296 67.544,210.041 67.750,209.871 C 68.135,209.556 69.204,209.060 70.750,208.481 C 71.231,208.300 71.906,207.959 72.250,207.722 C 72.594,207.485 73.662,207.049 74.625,206.752 C 75.588,206.455 76.825,205.992 77.375,205.721 C 77.925,205.452 79.444,204.954 80.750,204.617 C 82.056,204.279 83.800,203.788 84.625,203.526 C 86.390,202.967 88.781,202.479 90.875,202.252 C 91.700,202.162 92.656,201.964 93,201.812 C 93.742,201.483 98.116,201 100.345,201 C 102.631,201 102.800,200.746 103.149,196.789 C 103.419,193.719 103.504,193.398 104.914,190.087 C 105.099,189.654 105.250,189.196 105.250,189.069 C 105.250,188.734 107.322,186.057 108.563,184.789 C 109.147,184.192 110.083,183.492 110.643,183.234 C 111.203,182.977 112.091,182.425 112.615,182.008 C 113.139,181.591 113.832,181.250 114.154,181.250 C 114.915,181.250 117.983,180.094 118.526,179.601 C 119.846,178.407 119.782,172.873 118.411,169.654 C 117.670,167.914 115.393,165.815 113.125,164.781 C 112.227,164.371 111.442,163.298 111.239,162.201 C 110.966,160.722 111.175,159.915 112.044,159.083 C 112.720,158.437 112.941,158.376 114.579,158.387 C 116.162,158.398 116.634,158.524 118.559,159.451 C 120.273,160.275 121.147,160.905 122.612,162.370 C 124.283,164.041 125.750,166.301 125.750,167.204 C 125.750,167.358 125.966,167.910 126.230,168.430 C 126.841,169.635 127.368,173.568 127.148,175.297 C 126.722,178.654 126.694,179.506 126.999,179.874 C 127.169,180.079 128.211,180.532 129.314,180.880 C 130.417,181.229 131.650,181.792 132.054,182.132 C 132.458,182.472 133.037,182.750 133.341,182.750 C 134,182.750 136.250,180.563 136.250,179.923 C 136.250,179.684 136.534,179.380 136.881,179.248 C 137.228,179.116 137.745,178.612 138.031,178.129 C 138.316,177.645 138.722,177.250 138.934,177.250 C 139.146,177.250 139.807,176.800 140.404,176.250 C 141.001,175.700 141.635,175.250 141.812,175.250 C 141.990,175.250 142.704,174.876 143.398,174.419 C 144.298,173.826 145.181,173.502 146.480,173.287 C 147.481,173.122 148.620,172.821 149.012,172.619 C 150.155,172.028 154.501,172.113 155.750,172.750 C 156.289,173.025 156.893,173.250 157.093,173.250 C 157.292,173.250 157.747,173.596 158.103,174.019 C 158.605,174.616 158.750,175.061 158.750,176.003 C 158.750,177.673 158.460,178.294 157.333,179.041 C 156.450,179.625 156.071,179.693 152.995,179.816 C 149.263,179.967 148.423,180.206 145.875,181.839 C 143.974,183.058 142.448,184.517 141.335,186.180 C 140.331,187.680 140.356,187.945 141.686,189.837 C 142.598,191.134 142.930,191.816 143.958,194.500 C 144.486,195.876 144.596,196.651 144.679,199.557 C 144.784,203.249 144.866,202.834 142.939,208.257 C 142.766,208.743 142.372,209.460 142.062,209.853 C 141.753,210.246 141.500,210.677 141.500,210.810 C 141.500,210.944 141.162,211.553 140.750,212.164 C 140.338,212.775 140,213.472 140,213.714 C 140,213.955 140.994,215.271 142.208,216.639 C 145.024,219.809 149,224.743 149,225.066 C 149,225.202 149.345,225.721 149.767,226.220 C 150.905,227.564 152.144,229.435 153.013,231.125 C 153.437,231.950 154.001,232.857 154.267,233.141 C 154.533,233.425 154.750,233.877 154.750,234.147 C 154.750,234.416 155.197,235.308 155.743,236.130 C 156.289,236.952 156.739,237.822 156.743,238.062 C 156.747,238.302 157.147,239.258 157.631,240.187 C 158.116,241.115 158.573,242.325 158.648,242.875 C 158.770,243.778 159.189,244.978 160.131,247.125 C 160.311,247.537 160.586,248.932 160.740,250.224 C 160.895,251.515 161.149,252.809 161.304,253.099 C 161.460,253.388 161.673,254.525 161.776,255.625 C 161.879,256.725 162.079,258.625 162.220,259.848 C 162.421,261.588 162.399,262.511 162.118,264.098 C 161.921,265.213 161.756,266.462 161.753,266.875 C 161.750,267.288 161.570,267.962 161.353,268.375 C 161.136,268.788 160.862,269.710 160.744,270.425 C 160.412,272.440 158.528,275.154 156.523,276.503 C 155.200,277.394 154.570,277.639 152.898,277.911 C 150.590,278.286 150.482,278.286 147.207,277.899" stroke="#E3E0E1" fill="#E3E0E1" stroke-width="1" />
  <path id="25" d="M 67.750,308.750 C 67.219,308.219 67.104,307.157 67.476,306.204 C 67.722,305.574 70.938,301.658 72.366,300.250 C 72.854,299.769 73.253,299.275 73.252,299.152 C 73.251,299.029 73.765,298.326 74.394,297.589 C 75.417,296.392 75.643,296.250 76.519,296.250 C 78.574,296.250 79.144,298.036 77.625,299.717 C 77.144,300.250 76.750,300.768 76.750,300.869 C 76.750,301.019 75.589,302.473 73.055,305.494 C 69.968,309.176 69.944,309.197 68.812,309.233 C 68.503,309.242 68.025,309.025 67.750,308.750" stroke="#E3E0E1" fill="#E3E0E1" stroke-width="1" />
  <path id="25" d="M 120.173,309.243 C 119.819,308.964 119.189,308.142 118.772,307.414 C 118.356,306.687 117.787,305.885 117.508,305.632 C 117.229,305.380 117,305.048 117,304.897 C 117,304.745 116.493,304.003 115.873,303.248 C 113.932,300.884 112.962,299.132 113.222,298.459 C 113.436,297.902 114.264,297.029 114.939,296.647 C 115.316,296.433 117.413,298.082 117.629,298.761 C 117.710,299.018 118.221,299.765 118.763,300.422 C 119.306,301.079 119.750,301.712 119.750,301.831 C 119.750,301.950 120.172,302.603 120.688,303.282 C 121.203,303.962 122.047,305.073 122.562,305.752 C 123.638,307.166 123.756,308.107 122.982,309.091 C 122.339,309.908 121.104,309.975 120.173,309.243" stroke="#E3E0E1" fill="#E3E0E1" stroke-width="1" />
  <path id="25" d="M 92.279,316.732 C 92.279,316.732 91.433,316.216 91.433,316.216 C 91.433,316.216 91.592,314.046 91.592,314.046 C 91.680,312.852 91.856,311.256 91.983,310.500 C 92.109,309.744 92.222,308.026 92.232,306.683 C 92.248,304.522 92.323,304.125 92.878,303.245 C 93.401,302.417 93.642,302.250 94.316,302.254 C 95.315,302.259 95.630,302.455 95.871,303.227 C 95.974,303.558 95.976,306.585 95.875,309.954 C 95.875,309.954 95.692,316.078 95.692,316.078 C 95.692,316.078 95.059,316.664 95.059,316.664 C 94.280,317.386 93.387,317.408 92.279,316.732" stroke="#E3E0E1" fill="#E3E0E1" stroke-width="1" />
  </g><g id="text 2"><path id="25" d="M 319.164,250.043 C 318.785,249.625 318.750,247.678 318.750,227.177 C 318.750,205.277 318.761,204.762 319.233,204.509 C 319.748,204.233 324.992,204.154 325.938,204.407 C 325.938,204.407 326.500,204.558 326.500,204.558 C 326.500,204.558 326.500,227.377 326.500,227.377 C 326.500,247.955 326.461,250.212 326.104,250.348 C 325.887,250.432 324.329,250.500 322.643,250.500 C 319.991,250.500 319.522,250.438 319.164,250.043" stroke="#E3E0E1" fill="#E3E0E1" stroke-width="1" />
  <path id="25" d="M 256.857,263.745 C 255.885,263.643 254.737,263.377 254.307,263.154 C 253.877,262.932 253.414,262.750 253.279,262.750 C 252.775,262.750 251.749,262.199 249.184,260.549 C 248.071,259.833 246.411,257.842 246.574,257.418 C 246.641,257.245 247.601,256.286 248.708,255.288 C 248.708,255.288 250.720,253.474 250.720,253.474 C 250.720,253.474 251.673,254.306 251.673,254.306 C 252.196,254.763 253.356,255.641 254.250,256.256 C 254.250,256.256 255.875,257.375 255.875,257.375 C 255.875,257.375 259.375,257.458 259.375,257.458 C 261.417,257.506 263.251,257.428 263.778,257.271 C 264.973,256.913 267.789,254.149 268.611,252.528 C 269.162,251.440 269.250,250.942 269.250,248.914 C 269.250,245.550 268.734,245.333 266.293,247.667 C 265.762,248.175 265.085,248.526 264.420,248.638 C 263.846,248.735 262.985,249.025 262.505,249.282 C 261.811,249.654 261.094,249.750 259,249.750 C 256.906,249.750 256.189,249.654 255.495,249.282 C 255.015,249.025 254.169,248.738 253.614,248.644 C 251.819,248.341 249.039,245.967 247.050,243.039 C 246.365,242.032 245.250,238.978 245.250,238.112 C 245.250,237.809 245.081,237.157 244.875,236.663 C 244.381,235.480 244.363,231.089 244.849,229.946 C 245.040,229.494 245.330,228.394 245.493,227.500 C 245.767,225.998 246.115,225.088 247.168,223.125 C 247.707,222.121 251.337,218.584 252.054,218.364 C 252.368,218.268 253.443,217.809 254.443,217.345 C 256.160,216.547 256.413,216.500 259.005,216.500 C 261.679,216.500 261.809,216.526 264.062,217.530 C 265.334,218.096 266.774,218.940 267.260,219.405 C 268.610,220.693 269.500,220.433 269.500,218.750 C 269.500,218.255 269.635,217.715 269.800,217.550 C 270.177,217.173 276.667,217.125 276.792,217.499 C 276.837,217.636 276.808,225.202 276.726,234.311 C 276.591,249.258 276.531,251.111 276.098,253.290 C 275.834,254.618 275.445,255.912 275.233,256.165 C 275.022,256.418 274.561,257.075 274.208,257.625 C 273.430,258.840 272.175,260.173 271,261.036 C 269.869,261.866 268.129,262.750 267.626,262.750 C 267.410,262.750 266.965,262.925 266.637,263.140 C 266.250,263.394 265.006,263.610 263.084,263.759 C 259.796,264.014 259.389,264.013 256.857,263.745M 263.438,243.530 C 264.160,243.280 264.957,242.891 265.208,242.663 C 265.459,242.436 265.783,242.250 265.927,242.250 C 266.231,242.250 268.262,239.921 268.761,239 C 269.976,236.759 269.771,229.315 268.440,227.303 C 267.530,225.929 266.256,224.500 265.939,224.500 C 265.797,224.500 265.555,224.332 265.402,224.126 C 265,223.583 262.438,222.749 261.194,222.756 C 259.268,222.767 257.094,223.503 255.676,224.625 C 254.409,225.628 253.021,227.752 252.599,229.336 C 252.167,230.959 252.165,234.907 252.596,236.875 C 252.990,238.678 254.515,241.073 256.038,242.282 C 258.067,243.893 260.970,244.382 263.438,243.530" stroke="#E3E0E1" fill="#E3E0E1" stroke-width="1" />
  <path id="25" d="M 219.198,251.236 C 218.963,251.099 218.130,250.868 217.346,250.724 C 214.752,250.244 212.417,248.247 210.948,245.250 C 210.470,244.275 210.397,243.724 210.405,241.125 C 210.413,238.335 210.461,238.044 211.082,236.976 C 212.004,235.389 213.393,234.019 214.637,233.469 C 215.213,233.214 215.825,232.836 215.998,232.628 C 216.170,232.420 216.571,232.250 216.889,232.250 C 217.207,232.250 217.784,232.125 218.171,231.971 C 219.402,231.484 222,231.205 226.442,231.085 C 230.683,230.970 230.767,230.957 231.159,230.358 C 231.822,229.346 231.524,226.890 230.568,225.496 C 228.960,223.152 227.878,222.663 224.335,222.678 C 221.191,222.690 220.217,223.145 218.379,225.459 C 218.379,225.459 217.125,227.039 217.125,227.039 C 217.125,227.039 215.750,226.871 215.750,226.871 C 214.994,226.779 213.869,226.500 213.250,226.251 C 212.631,226.001 211.928,225.734 211.688,225.657 C 211.093,225.465 211.129,224.437 211.750,223.875 C 212.025,223.626 212.250,223.261 212.250,223.065 C 212.250,222.091 215.973,218.250 216.917,218.250 C 217.114,218.250 217.692,218.036 218.201,217.774 C 220.542,216.569 220.896,216.500 224.727,216.500 C 228.387,216.500 228.466,216.512 230.607,217.375 C 231.801,217.856 232.923,218.250 233.100,218.250 C 233.277,218.250 234.087,218.825 234.899,219.527 C 236.073,220.543 236.534,221.169 237.149,222.590 C 237.576,223.572 238.110,224.793 238.337,225.304 C 238.702,226.125 238.750,227.593 238.750,237.883 C 238.750,245.436 238.659,249.703 238.491,250.017 C 238.259,250.451 237.945,250.500 235.416,250.500 C 232.323,250.500 232,250.370 232,249.131 C 232,248.273 231.398,247.250 230.893,247.250 C 230.712,247.250 229.846,247.824 228.969,248.525 C 226.966,250.127 226.421,250.408 224.872,250.631 C 224.186,250.731 223.246,250.966 222.782,251.156 C 221.806,251.554 219.820,251.598 219.198,251.236M 225.547,245.389 C 227.146,244.904 229.107,243.387 230.137,241.838 C 231.291,240.103 231.500,239.474 231.500,237.743 C 231.500,235.728 231.358,235.670 226.780,235.806 C 223.994,235.889 222.947,236.013 222.375,236.331 C 221.963,236.560 221.287,236.748 220.875,236.750 C 219.954,236.754 218.937,237.399 218.133,238.489 C 217.314,239.600 217.148,240.532 217.505,242.022 C 217.743,243.012 218.034,243.463 218.912,244.198 C 219.521,244.708 220.381,245.257 220.822,245.418 C 221.938,245.826 224.151,245.812 225.547,245.389" stroke="#E3E0E1" fill="#E3E0E1" stroke-width="1" />
  <path id="25" d="M 343.067,250.725 C 340.800,250.461 339.716,249.911 337.918,248.113 C 336.321,246.517 335.942,245.834 335.353,243.500 C 335.128,242.606 334.787,241.571 334.596,241.200 C 334.316,240.653 334.250,238.317 334.250,228.887 C 334.250,228.887 334.250,217.250 334.250,217.250 C 334.250,217.250 337.860,217.250 337.860,217.250 C 340.474,217.250 341.526,217.336 341.673,217.562 C 341.784,217.734 341.875,222.938 341.875,229.125 C 341.875,240.285 341.880,240.383 342.433,241.415 C 343.110,242.678 344.566,243.924 345.750,244.254 C 347.057,244.618 349.239,244.550 350.755,244.100 C 351.767,243.800 352.462,243.350 353.553,242.288 C 355.805,240.097 355.807,240.086 355.980,227.750 C 355.980,227.750 356.125,217.375 356.125,217.375 C 356.125,217.375 359.875,217.375 359.875,217.375 C 359.875,217.375 363.625,217.375 363.625,217.375 C 363.625,217.375 363.651,233.500 363.651,233.500 C 363.666,242.487 363.579,249.819 363.455,250.062 C 363.260,250.446 362.822,250.500 359.881,250.500 C 357.951,250.500 356.465,250.395 356.377,250.254 C 356.294,250.118 356.144,249.528 356.045,248.941 C 355.882,247.985 355.786,247.867 355.107,247.800 C 354.592,247.750 354.201,247.890 352.520,249.100 C 351.500,250.002 350.130,250.508 348.059,250.746 C 345.642,251.023 345.627,251.023 343.067,250.725" stroke="#E3E0E1" fill="#E3E0E1" stroke-width="1" />
  <path id="25" d="M 291.635,251.267 C 291.556,251.138 290.853,250.901 290.072,250.739 C 289.291,250.577 288.250,250.190 287.758,249.880 C 286.564,249.126 284.547,247.059 284.365,246.402 C 284.285,246.112 283.934,245.288 283.584,244.571 C 283.019,243.411 282.960,243.027 283.045,241.071 C 283.127,239.204 283.263,238.631 283.954,237.250 C 284.402,236.356 285.214,235.233 285.758,234.753 C 288.795,232.078 291.539,231.333 299.250,231.089 C 304.210,230.932 304.250,230.912 304.250,228.602 C 304.250,227.739 304.131,226.716 303.986,226.329 C 303.616,225.345 301.552,223.303 300.637,223.017 C 299.253,222.583 297.148,222.460 295.557,222.719 C 293.514,223.051 292.094,224.005 291.125,225.696 C 291.125,225.696 290.375,227.004 290.375,227.004 C 290.375,227.004 288.750,226.847 288.750,226.847 C 287.856,226.761 286.506,226.433 285.750,226.119 C 284.222,225.484 283.985,225.007 284.529,223.664 C 284.887,222.779 286.712,220.250 286.992,220.250 C 287.092,220.250 287.569,219.866 288.053,219.396 C 288.536,218.927 289.312,218.429 289.778,218.290 C 290.244,218.151 291.452,217.691 292.464,217.268 C 294.222,216.533 294.455,216.500 297.839,216.500 C 300.819,216.500 301.591,216.582 302.750,217.022 C 303.506,217.309 304.238,217.637 304.375,217.750 C 304.512,217.863 305.068,218.038 305.609,218.139 C 307.374,218.469 310.750,222.442 310.750,224.189 C 310.750,224.600 310.919,225.416 311.125,226 C 311.438,226.886 311.500,228.975 311.500,238.523 C 311.500,249.597 311.484,249.991 311.017,250.241 C 310.750,250.383 309.403,250.500 308.022,250.500 C 305.688,250.500 305.486,250.460 305.139,249.932 C 304.935,249.620 304.733,248.917 304.692,248.369 C 304.629,247.544 304.517,247.361 304.031,247.292 C 303.675,247.241 303.188,247.442 302.786,247.806 C 300.921,249.493 299.308,250.333 297.187,250.720 C 296.396,250.865 295.531,251.100 295.265,251.242 C 294.664,251.564 291.831,251.583 291.635,251.267M 298.261,245.427 C 300.226,244.905 303.238,242.130 303.992,240.146 C 304.406,239.057 304.314,236.736 303.836,236.207 C 303.212,235.517 298.070,235.546 296.065,236.250 C 295.283,236.525 294.241,236.750 293.752,236.750 C 292.589,236.750 291.895,237.263 290.853,238.893 C 289.830,240.492 289.800,241.046 290.646,242.650 C 291.481,244.233 292.337,245.124 293.329,245.443 C 294.429,245.797 296.897,245.788 298.261,245.427" stroke="#E3E0E1" fill="#E3E0E1" stroke-width="1" />
  <path id="25" d="M 440.375,251 C 439.825,250.885 438.555,250.668 437.553,250.519 C 436.044,250.295 435.399,250.035 433.803,249.010 C 431.837,247.748 429.258,245.558 429.253,245.148 C 429.251,245.023 428.800,244.325 428.250,243.596 C 427.700,242.868 427.250,242.046 427.250,241.770 C 427.250,241.494 427.041,240.674 426.784,239.947 C 426.528,239.220 426.118,237.577 425.872,236.297 C 425.447,234.083 425.447,233.867 425.854,231.922 C 426.091,230.796 426.502,229.200 426.769,228.375 C 427.036,227.550 427.254,226.634 427.252,226.340 C 427.251,226.046 427.644,225.258 428.125,224.590 C 428.607,223.922 429.107,223.150 429.237,222.875 C 429.779,221.728 433.332,218.611 434.385,218.359 C 434.792,218.262 435.406,218.035 435.750,217.854 C 438.058,216.642 438.741,216.500 442.219,216.508 C 444.817,216.514 445.740,216.603 446.110,216.883 C 446.377,217.085 446.754,217.250 446.947,217.250 C 447.140,217.250 447.596,217.458 447.962,217.714 C 448.327,217.969 448.933,218.251 449.308,218.342 C 450.301,218.582 452.416,220.550 454.022,222.730 C 455.163,224.277 455.453,224.875 455.600,225.983 C 455.699,226.731 455.998,227.821 456.265,228.407 C 456.642,229.234 456.750,230.030 456.750,231.966 C 456.750,233.337 456.692,234.609 456.622,234.792 C 456.518,235.063 454.489,235.116 445.675,235.075 C 437.420,235.037 434.711,235.100 434.241,235.339 C 433.661,235.634 433.629,235.758 433.691,237.483 C 433.798,240.452 435.130,242.528 438.039,244.256 C 439.657,245.217 439.787,245.250 441.964,245.250 C 444.017,245.250 444.354,245.178 445.779,244.438 C 446.638,243.991 447.851,243.090 448.473,242.438 C 449.094,241.785 449.807,241.250 450.057,241.250 C 451.158,241.250 454.750,243.618 454.750,244.343 C 454.750,245.071 452.433,247.660 450.769,248.790 C 449.157,249.886 447.649,250.410 445.119,250.752 C 441.722,251.213 441.453,251.226 440.375,251M 448.950,229.950 C 449.774,229.126 448.898,226.326 447.299,224.667 C 446.149,223.475 445.437,223.096 443.488,222.642 C 442.166,222.333 441.699,222.332 440.133,222.631 C 439.132,222.823 437.914,223.215 437.426,223.503 C 435.873,224.419 433.750,227.469 433.750,228.783 C 433.750,229.087 433.936,229.541 434.164,229.793 C 434.546,230.215 435.115,230.250 441.614,230.250 C 446.753,230.250 448.731,230.169 448.950,229.950" stroke="#E3E0E1" fill="#E3E0E1" stroke-width="1" />
  <path id="25" d="M 185.488,250.137 C 185.357,250.007 185.250,249.717 185.250,249.494 C 185.250,248.986 184.192,245.880 183.677,244.875 C 183.465,244.463 183.182,243.562 183.047,242.875 C 182.747,241.353 182.076,239.508 181.637,239 C 181.459,238.794 181.259,238.106 181.191,237.472 C 181.124,236.839 180.699,235.545 180.246,234.597 C 179.793,233.650 179.335,232.351 179.230,231.710 C 179.124,231.070 178.645,229.720 178.166,228.710 C 177.687,227.701 177.227,226.396 177.144,225.811 C 177.061,225.226 176.617,223.933 176.155,222.936 C 175.694,221.940 175.259,220.675 175.189,220.125 C 175.119,219.575 174.707,218.396 174.274,217.506 C 173.841,216.615 173.424,215.434 173.347,214.881 C 173.270,214.327 172.867,213.161 172.451,212.287 C 172.034,211.414 171.538,210.033 171.348,209.218 C 171.158,208.403 170.841,207.487 170.645,207.181 C 170.080,206.304 169.869,204.737 170.280,204.476 C 170.470,204.356 172.318,204.256 174.387,204.254 C 178.332,204.250 178.750,204.357 178.750,205.369 C 178.750,205.655 178.898,206.111 179.079,206.382 C 179.260,206.653 179.718,207.887 180.097,209.125 C 180.475,210.363 180.899,211.713 181.037,212.125 C 181.710,214.130 181.981,214.993 182.372,216.375 C 182.606,217.200 182.971,218.264 183.185,218.739 C 183.560,219.577 184.030,221.101 184.524,223.089 C 184.656,223.619 184.946,224.404 185.168,224.833 C 185.390,225.262 185.729,226.235 185.922,226.994 C 186.115,227.754 186.383,228.807 186.518,229.335 C 186.652,229.863 186.985,230.730 187.256,231.262 C 187.528,231.794 187.750,232.470 187.750,232.764 C 187.750,233.544 188.763,236.812 189.141,237.250 C 189.319,237.457 189.583,237.935 189.726,238.313 C 190.145,239.414 190.882,239.208 191.515,237.812 C 191.811,237.160 192.203,236.119 192.386,235.500 C 193.170,232.836 193.518,231.754 194.230,229.750 C 194.646,228.581 194.989,227.456 194.992,227.250 C 194.996,227.044 195.273,226.200 195.607,225.375 C 195.942,224.550 196.401,223.200 196.628,222.375 C 196.855,221.550 197.301,220.144 197.620,219.250 C 197.939,218.356 198.393,217.006 198.630,216.250 C 198.866,215.494 199.279,214.256 199.547,213.500 C 199.815,212.744 200.367,211 200.773,209.625 C 201.844,205.999 202.483,204.564 203.101,204.398 C 203.804,204.209 209.357,204.211 209.850,204.400 C 210.120,204.504 210.176,204.677 210.030,204.963 C 209.913,205.190 209.749,205.832 209.664,206.391 C 209.465,207.695 208.583,210.460 208.156,211.117 C 207.974,211.397 207.746,212.050 207.650,212.570 C 207.391,213.963 206.583,216.389 206.158,217.049 C 205.954,217.366 205.712,218.075 205.620,218.625 C 205.433,219.750 204.741,221.751 204.155,222.868 C 203.940,223.277 203.696,224.121 203.612,224.743 C 203.529,225.366 203.124,226.599 202.713,227.485 C 202.302,228.370 201.852,229.720 201.714,230.485 C 201.577,231.249 201.125,232.597 200.712,233.481 C 200.298,234.364 199.865,235.658 199.750,236.356 C 199.636,237.054 199.138,238.438 198.645,239.430 C 198.096,240.538 197.750,241.601 197.749,242.180 C 197.749,242.700 197.542,243.463 197.290,243.876 C 196.555,245.081 195.750,247.445 195.750,248.396 C 195.750,249.021 195.562,249.448 195.099,249.878 C 194.456,250.473 194.385,250.481 190.086,250.428 C 187.688,250.399 185.619,250.268 185.488,250.137" stroke="#E3E0E1" fill="#E3E0E1" stroke-width="1" />
  <path id="25" d="M 371.141,250.105 C 370.788,249.752 370.753,247.994 370.811,233.543 C 370.811,233.543 370.875,217.375 370.875,217.375 C 370.875,217.375 374.250,217.375 374.250,217.375 C 374.250,217.375 377.625,217.375 377.625,217.375 C 377.625,217.375 377.752,218.802 377.752,218.802 C 377.912,220.594 378.196,220.921 379.159,220.420 C 379.553,220.215 380.151,219.752 380.489,219.390 C 380.827,219.029 382.164,218.231 383.460,217.617 C 385.807,216.505 385.829,216.500 388.570,216.500 C 388.570,216.500 391.324,216.500 391.324,216.500 C 391.324,216.500 393.397,217.630 393.397,217.630 C 394.853,218.423 395.818,219.167 396.640,220.130 C 397.284,220.883 398.014,221.500 398.263,221.500 C 398.512,221.500 399.370,220.869 400.171,220.096 C 400.971,219.325 401.983,218.539 402.419,218.351 C 402.856,218.162 403.789,217.669 404.493,217.254 C 405.721,216.530 405.889,216.500 408.729,216.500 C 411.751,216.500 412.965,216.797 414.360,217.875 C 414.627,218.081 415.050,218.250 415.301,218.250 C 415.935,218.250 418.182,220.690 418.524,221.750 C 418.679,222.231 418.962,222.875 419.154,223.181 C 420.114,224.711 420.243,226.506 420.246,238.387 C 420.249,247.012 420.175,249.975 419.950,250.200 C 419.748,250.402 418.606,250.500 416.450,250.500 C 414.690,250.500 413.228,250.472 413.200,250.438 C 413.172,250.403 413.078,245.706 412.990,240 C 412.824,229.157 412.683,227.678 411.665,225.974 C 409.796,222.848 405.599,222.166 402.242,224.443 C 401.221,225.136 399.926,226.794 399.366,228.125 C 399.250,228.400 399.149,233.438 399.140,239.321 C 399.127,248.546 399.074,250.051 398.750,250.255 C 398.184,250.613 392.415,250.565 392.050,250.200 C 391.826,249.976 391.750,247.167 391.750,239.101 C 391.750,239.101 391.750,228.301 391.750,228.301 C 391.750,228.301 390.983,226.838 390.983,226.838 C 389.680,224.353 389.021,223.827 386.321,223.122 C 385.134,222.812 384.889,222.827 383.593,223.282 C 381.761,223.926 380.120,225.280 379.365,226.770 C 378.346,228.780 378.202,230.661 378.291,240.696 C 378.364,248.772 378.325,250.049 378,250.255 C 377.794,250.386 376.255,250.494 374.580,250.496 C 372.136,250.499 371.458,250.422 371.141,250.105" stroke="#E3E0E1" fill="#E3E0E1" stroke-width="1" />
</g><g id="text 1"><path id="25" d="M 239.081,298.087 C 238.781,298.023 238.431,297.836 238.303,297.673 C 238.033,297.327 237.351,295.436 237.139,294.442 C 236.877,293.217 236.007,293 231.363,293 C 231.363,293 227.201,293 227.201,293 C 227.201,293 226.494,293.757 226.494,293.757 C 226.105,294.173 225.708,294.872 225.612,295.311 C 225.515,295.750 225.321,296.337 225.179,296.617 C 225.038,296.896 224.844,297.294 224.748,297.500 C 224.544,297.938 221.823,298.173 221.437,297.787 C 221.283,297.633 221.387,297.039 221.723,296.139 C 222.013,295.365 222.250,294.488 222.250,294.192 C 222.250,293.895 222.542,293.229 222.900,292.714 C 223.258,292.197 223.759,291.010 224.013,290.075 C 224.268,289.140 224.810,287.692 225.219,286.858 C 225.626,286.023 226.036,284.898 226.129,284.358 C 226.221,283.817 226.492,283.094 226.731,282.750 C 226.970,282.406 227.428,281.337 227.749,280.375 C 228.677,277.589 229.732,275.563 230.339,275.401 C 230.633,275.322 231.456,275.255 232.165,275.253 C 233.284,275.250 233.536,275.346 234.065,275.975 C 234.420,276.397 234.741,277.179 234.832,277.846 C 234.919,278.476 235.386,279.794 235.870,280.774 C 236.354,281.753 236.750,282.812 236.750,283.127 C 236.750,283.718 237.700,285.962 238.210,286.577 C 238.369,286.768 238.610,287.510 238.745,288.226 C 238.881,288.941 239.387,290.330 239.871,291.311 C 240.355,292.292 240.750,293.374 240.750,293.715 C 240.750,294.056 241.105,295.105 241.538,296.046 C 241.972,296.986 242.280,297.804 242.221,297.862 C 242.043,298.041 239.657,298.212 239.081,298.087M 234.917,289.597 C 235.325,288.974 235.321,288.897 234.823,287.909 C 234.307,286.885 233.654,285.075 233.275,283.620 C 232.995,282.545 231.778,280.699 231.427,280.816 C 230.988,280.962 229.313,284.435 228.986,285.875 C 228.829,286.562 228.544,287.443 228.351,287.833 C 227.921,288.700 227.900,289.550 228.300,289.950 C 228.499,290.149 229.588,290.250 231.544,290.250 C 234.443,290.250 234.495,290.240 234.917,289.597" stroke="#E3E0E1" fill="#E3E0E1" stroke-width="1" />
  <path id="25" d="M 253.496,297.743 C 253.077,296.959 253.240,275.820 253.668,275.464 C 253.883,275.286 255.603,275.233 258.808,275.305 C 262.967,275.399 263.847,275.491 265.250,275.974 C 267.105,276.614 267.821,277.161 268.950,278.803 C 269.724,279.928 269.750,280.048 269.750,282.572 C 269.750,285.138 269.737,285.196 268.938,286.200 C 268.491,286.762 267.642,287.570 267.051,287.995 C 265.916,288.814 265.596,289.300 265.853,289.812 C 266.168,290.440 267.154,292.001 268.366,293.791 C 270.500,296.942 270.600,297.129 270.409,297.625 C 270.240,298.066 268.168,298.147 267.132,297.752 C 266.302,297.437 265.318,296.317 265.123,295.467 C 265.041,295.105 264.592,294.363 264.127,293.820 C 263.661,293.276 263.202,292.520 263.106,292.141 C 263.011,291.762 262.516,291.012 262.005,290.476 C 261.112,289.537 261.016,289.500 259.452,289.500 C 257.067,289.500 257,289.620 257,293.849 C 257,295.738 256.884,297.500 256.741,297.767 C 256.356,298.487 253.885,298.469 253.496,297.743M 264.168,285.879 C 264.972,285.316 266.001,283.389 265.996,282.455 C 265.991,281.436 265.116,279.851 264.171,279.150 C 263.577,278.709 263.028,278.613 260.670,278.539 C 258.042,278.455 257.843,278.483 257.374,279.003 C 256.925,279.501 256.883,279.845 256.954,282.451 C 256.998,284.043 257.142,285.549 257.276,285.798 C 257.489,286.196 257.882,286.250 260.578,286.250 C 262.879,286.250 263.770,286.158 264.168,285.879" stroke="#E3E0E1" fill="#E3E0E1" stroke-width="1" />
  <path id="25" d="M 339.605,297.967 C 339.402,297.639 339.438,275.802 339.642,275.472 C 339.827,275.174 342.337,275.188 342.638,275.488 C 342.878,275.728 342.876,297.312 342.636,297.937 C 342.483,298.336 339.849,298.363 339.605,297.967" stroke="#E3E0E1" fill="#E3E0E1" stroke-width="1" />
  <path id="25" d="M 356.353,297.688 C 356.221,297.363 356.178,292.534 356.250,286.250 C 356.250,286.250 356.375,275.375 356.375,275.375 C 356.375,275.375 361.500,275.390 361.500,275.390 C 366.428,275.404 366.691,275.430 368.349,276.068 C 370.445,276.875 371.039,277.406 372.004,279.337 C 372.944,281.217 373.049,283.631 372.249,284.943 C 371.974,285.394 371.750,285.894 371.750,286.055 C 371.750,286.404 370.503,287.750 370.179,287.750 C 370.054,287.750 369.625,287.983 369.226,288.267 C 368.370,288.877 368.279,289.723 369,290.375 C 369.275,290.624 369.500,290.938 369.500,291.073 C 369.500,291.208 370.006,292.087 370.625,293.026 C 371.244,293.966 371.750,294.810 371.750,294.904 C 371.750,294.997 372.144,295.554 372.625,296.141 C 373.106,296.728 373.500,297.327 373.500,297.471 C 373.500,297.929 372.573,298.250 371.247,298.250 C 369.835,298.250 369.132,297.740 368.130,295.990 C 364.420,289.502 364.419,289.500 362.370,289.500 C 360.039,289.500 359.892,289.749 359.804,293.839 C 359.705,298.457 359.788,298.250 358.035,298.250 C 356.760,298.250 356.552,298.180 356.353,297.688M 367.250,285.519 C 368.324,284.669 368.842,283.273 368.644,281.768 C 368.365,279.654 366.988,278.788 363.580,278.584 C 361.355,278.450 361.067,278.484 360.500,278.946 C 359.897,279.438 359.875,279.558 359.877,282.442 C 359.879,286.503 359.808,286.437 364,286.293 C 366.155,286.219 366.456,286.148 367.250,285.519" stroke="#E3E0E1" fill="#E3E0E1" stroke-width="1" />
  <path id="25" d="M 420.125,298.250 C 420.040,298.113 419.474,297.875 418.868,297.722 C 418.261,297.569 417.635,297.288 417.477,297.097 C 417.318,296.906 417.052,296.750 416.884,296.750 C 416.717,296.750 416.286,296.338 415.928,295.834 C 415.187,294.793 415.271,294.448 416.514,293.402 C 417.504,292.568 417.747,292.582 418.641,293.523 C 419.882,294.829 421.041,295.275 423.236,295.289 C 425.736,295.306 426.746,294.853 427.650,293.310 C 428.312,292.180 428.315,292.159 427.873,291.340 C 427.628,290.885 427.217,290.322 426.959,290.089 C 426.400,289.582 424.131,288.750 423.310,288.750 C 422.988,288.750 422.399,288.581 422,288.375 C 421.601,288.169 420.712,287.879 420.024,287.732 C 419.114,287.537 418.491,287.190 417.740,286.461 C 414.355,283.176 415.387,278.106 419.875,275.966 C 421.211,275.329 421.644,275.250 423.834,275.250 C 426.019,275.250 426.466,275.330 427.834,275.968 C 429.406,276.701 430.750,277.755 430.750,278.255 C 430.750,278.857 430.224,279.461 429.468,279.724 C 428.310,280.127 427.888,280.068 427.221,279.412 C 426.370,278.572 425.763,278.302 424.284,278.106 C 422.661,277.890 421.408,278.395 420.386,279.676 C 419.455,280.843 419.413,282.479 420.290,283.428 C 420.976,284.170 422.758,284.995 423.708,285.011 C 424.610,285.026 426.599,285.565 427.027,285.911 C 427.219,286.066 427.743,286.271 428.193,286.367 C 429.267,286.597 430.300,287.489 431.128,288.904 C 431.736,289.941 431.791,290.240 431.712,292.095 C 431.632,293.971 431.551,294.245 430.740,295.384 C 430.143,296.221 429.450,296.822 428.615,297.229 C 427.933,297.562 427.077,297.983 426.712,298.167 C 425.915,298.567 420.364,298.637 420.125,298.250" stroke="#E3E0E1" fill="#E3E0E1" stroke-width="1" />
  <path id="25" d="M 384.550,297.950 C 384.005,297.405 384.236,296.143 385.250,294.125 C 385.800,293.030 386.250,291.827 386.250,291.451 C 386.250,291.075 386.638,290.060 387.113,289.196 C 387.587,288.332 388.050,287.119 388.142,286.500 C 388.234,285.881 388.490,285.094 388.710,284.750 C 389.469,283.568 390.250,281.700 390.250,281.067 C 390.250,280.719 390.488,280.049 390.779,279.578 C 391.070,279.107 391.571,277.969 391.893,277.048 C 391.893,277.048 392.478,275.375 392.478,275.375 C 392.478,275.375 394.532,275.375 394.532,275.375 C 394.532,275.375 396.587,275.375 396.587,275.375 C 396.587,275.375 397.300,277.342 397.300,277.342 C 397.692,278.424 398.179,279.546 398.382,279.835 C 398.584,280.125 398.750,280.613 398.750,280.921 C 398.750,281.670 399.651,283.921 400.261,284.696 C 400.530,285.038 400.750,285.647 400.750,286.050 C 400.750,286.880 401.616,289.077 402.296,289.971 C 402.546,290.299 402.750,290.940 402.750,291.395 C 402.750,291.872 403.174,293.042 403.750,294.156 C 404.788,296.161 405.009,297.474 404.394,297.984 C 404.196,298.149 403.510,298.245 402.840,298.202 C 401.800,298.135 401.567,298.015 401.083,297.294 C 400.776,296.837 400.349,295.858 400.134,295.118 C 399.538,293.068 399.354,293 394.425,293 C 394.425,293 390.212,293 390.212,293 C 390.212,293 389.481,293.731 389.481,293.731 C 389.079,294.133 388.750,294.637 388.750,294.850 C 388.750,295.064 388.450,295.850 388.084,296.596 C 387.553,297.680 387.269,297.984 386.678,298.102 C 385.548,298.328 384.880,298.280 384.550,297.950M 397.519,289.731 C 397.805,289.445 397.980,289.058 397.908,288.871 C 397.837,288.684 397.650,288.057 397.494,287.478 C 397.338,286.898 396.994,286.021 396.730,285.528 C 396.466,285.036 396.250,284.448 396.250,284.222 C 396.250,283.996 395.981,283.094 395.653,282.218 C 395.231,281.093 394.912,280.603 394.568,280.550 C 393.923,280.452 393.682,280.794 392.928,282.875 C 392.580,283.837 391.993,285.413 391.625,286.375 C 390.671,288.864 390.623,289.195 391.133,289.759 C 391.523,290.190 391.911,290.250 394.289,290.250 C 396.700,290.250 397.057,290.193 397.519,289.731" stroke="#E3E0E1" fill="#E3E0E1" stroke-width="1" />
  <path id="25" d="M 283.312,297.973 C 283.072,297.724 283,295.096 283,286.575 C 283,277.899 283.068,275.493 283.312,275.468 C 283.485,275.450 285.762,275.455 288.375,275.479 C 292.480,275.517 293.358,275.596 294.839,276.065 C 298.086,277.094 299.500,279.060 299.500,282.543 C 299.500,284.853 298.083,287.750 296.952,287.750 C 296.428,287.750 295.500,288.817 295.500,289.419 C 295.500,289.842 298.005,293.926 300.045,296.830 C 300.833,297.951 300.519,298.250 298.557,298.250 C 296.955,298.250 296.799,298.199 296.070,297.438 C 295.641,296.991 295.013,296.097 294.673,295.452 C 294.333,294.807 293.729,293.795 293.331,293.202 C 292.933,292.610 292.456,291.755 292.270,291.304 C 291.708,289.937 290.921,289.500 289.016,289.500 C 288.053,289.500 287.223,289.627 287.050,289.800 C 286.843,290.007 286.750,291.280 286.750,293.910 C 286.750,296.245 286.651,297.782 286.493,297.879 C 285.929,298.228 283.625,298.296 283.312,297.973M 292.070,286.250 C 293.443,286.250 293.631,286.181 294.356,285.413 C 294.790,284.952 295.295,284.122 295.478,283.568 C 296.161,281.498 294.651,279.104 292.375,278.646 C 290.907,278.351 287.531,278.413 287.134,278.743 C 286.825,278.999 286.750,279.696 286.750,282.324 C 286.750,286.406 286.882,286.634 289.099,286.403 C 289.910,286.319 291.247,286.250 292.070,286.250" stroke="#E3E0E1" fill="#E3E0E1" stroke-width="1" />
  <path id="25" d="M 199.182,298.156 C 198.939,297.967 198.306,297.743 197.777,297.658 C 197.248,297.574 196.674,297.335 196.502,297.127 C 196.329,296.920 196.042,296.750 195.864,296.750 C 195.538,296.750 193.683,294.671 192.964,293.500 C 192.389,292.565 191.461,289.312 191.323,287.750 C 191.208,286.449 191.393,285.383 192.310,282.076 C 192.508,281.361 193.145,280.147 193.725,279.379 C 194.739,278.036 196.525,276.509 197.100,276.492 C 197.251,276.488 197.938,276.208 198.625,275.870 C 199.733,275.325 200.202,275.255 202.750,275.254 C 204.714,275.253 205.835,275.363 206.288,275.599 C 206.653,275.789 207.328,276.070 207.788,276.222 C 208.249,276.375 209.300,277.120 210.125,277.880 C 210.125,277.880 211.625,279.262 211.625,279.262 C 211.625,279.262 210.875,279.817 210.875,279.817 C 210.463,280.123 209.887,280.627 209.596,280.937 C 208.914,281.664 208.703,281.647 208.082,280.812 C 207.377,279.867 204.506,278.451 203,278.307 C 201.144,278.128 198.501,279.466 196.924,281.382 C 196.924,281.382 195.750,282.808 195.750,282.808 C 195.750,282.808 195.750,286.666 195.750,286.666 C 195.750,290.936 195.849,291.312 197.452,293.125 C 199.849,295.835 204.311,296.004 207.172,293.493 C 208.311,292.492 208.951,292.548 210.126,293.751 C 210.126,293.751 211.104,294.752 211.104,294.752 C 211.104,294.752 209.794,295.981 209.794,295.981 C 207.935,297.728 206.192,298.309 202.500,298.417 C 200.337,298.480 199.516,298.416 199.182,298.156" stroke="#E3E0E1" fill="#E3E0E1" stroke-width="1" />
  <path id="25" d="M 312.477,297.846 C 312.339,297.681 312.272,293.044 312.310,286.471 C 312.310,286.471 312.375,275.375 312.375,275.375 C 312.375,275.375 319,275.305 319,275.305 C 322.644,275.266 325.884,275.298 326.199,275.375 C 326.732,275.505 326.768,275.627 326.699,277.070 C 326.699,277.070 326.625,278.625 326.625,278.625 C 326.625,278.625 321.625,278.750 321.625,278.750 C 318.875,278.819 316.485,278.966 316.312,279.077 C 316.098,279.216 316,280.043 316,281.726 C 316,285.092 315.865,285 320.805,285 C 325.092,285 325,284.964 325,286.631 C 325,287.093 324.876,287.547 324.725,287.641 C 324.573,287.734 322.708,287.825 320.580,287.843 C 315.792,287.883 316,287.710 316,291.642 C 316,293.938 316.074,294.500 316.413,294.782 C 316.727,295.042 317.970,295.136 321.564,295.171 C 324.170,295.196 326.459,295.276 326.651,295.350 C 326.865,295.433 326.998,295.849 326.996,296.430 C 326.989,298.192 327.279,298.125 319.613,298.125 C 314.841,298.125 312.637,298.039 312.477,297.846" stroke="#E3E0E1" fill="#E3E0E1" stroke-width="1" />
  </g><g id="green 2"><path id="25" d="M 96.500,285.112 C 95.881,284.917 95.150,284.752 94.875,284.746 C 94.600,284.740 93.812,284.458 93.125,284.120 C 92.438,283.781 91.525,283.503 91.099,283.502 C 90.599,283.501 89.914,283.188 89.176,282.625 C 88.546,282.144 87.923,281.750 87.792,281.750 C 87.021,281.750 81.500,275.534 81.500,274.666 C 81.500,274.474 81.293,274.049 81.040,273.721 C 80.787,273.393 80.432,272.731 80.251,272.250 C 79.823,271.111 79.287,262.508 79.524,260.601 C 79.625,259.789 79.718,258.484 79.729,257.700 C 79.754,256.036 80.249,254.035 80.981,252.635 C 81.267,252.090 81.500,251.495 81.500,251.312 C 81.500,250.528 83.869,247.898 84.838,247.606 C 85.133,247.517 85.656,247.190 86,246.879 C 86.344,246.569 86.906,246.246 87.250,246.162 C 87.594,246.079 88.266,245.755 88.743,245.443 C 89.219,245.131 90.279,244.504 91.097,244.051 C 91.915,243.598 92.953,242.923 93.404,242.551 C 93.855,242.179 94.682,241.537 95.241,241.125 C 99.766,237.790 106.322,231.452 109.723,227.125 C 110.696,225.887 111.701,224.650 111.956,224.375 C 112.211,224.100 112.675,223.503 112.987,223.048 C 113.418,222.421 113.706,222.240 114.186,222.298 C 114.186,222.298 114.819,222.375 114.819,222.375 C 114.819,222.375 114.783,228.500 114.783,228.500 C 114.760,232.326 114.851,235 115.024,235.625 C 115.176,236.175 115.403,237.868 115.526,239.386 C 115.753,242.167 116.007,243.374 116.945,246.125 C 117.226,246.950 117.576,248.149 117.721,248.790 C 117.867,249.430 118.326,250.532 118.743,251.238 C 119.159,251.944 119.500,252.776 119.500,253.086 C 119.500,253.397 119.931,254.320 120.459,255.138 C 120.987,255.956 121.543,256.990 121.696,257.437 C 121.849,257.883 122.280,258.651 122.655,259.142 C 123.273,259.952 123.309,260.113 123.043,260.849 C 122.882,261.295 122.750,262.024 122.750,262.469 C 122.750,262.914 122.522,263.778 122.243,264.389 C 121.965,265.001 121.635,266.036 121.511,266.688 C 121.297,267.816 120.665,269.380 119.870,270.750 C 119.671,271.094 119.502,271.544 119.496,271.750 C 119.489,271.956 119.150,272.575 118.743,273.125 C 118.335,273.675 117.840,274.469 117.642,274.890 C 117.445,275.310 116.989,275.789 116.628,275.953 C 116.268,276.117 115.856,276.589 115.712,277.001 C 115.569,277.413 115.313,277.750 115.144,277.750 C 114.779,277.750 113.888,278.695 113.670,279.312 C 113.585,279.553 113.309,279.750 113.057,279.750 C 112.805,279.750 112.225,280.135 111.769,280.606 C 111.313,281.076 110.644,281.535 110.284,281.625 C 109.922,281.716 109.158,282.175 108.584,282.645 C 108.010,283.115 107.323,283.500 107.058,283.500 C 106.523,283.500 105.276,283.870 104.125,284.370 C 102.853,284.923 100.104,285.501 98.834,285.483 C 98.169,285.474 97.119,285.307 96.500,285.112M 104.125,282.027 C 108.523,280.563 108.382,280.626 111.125,278.856 C 113.299,277.453 116.022,274.387 117.437,271.750 C 118.963,268.904 120.061,266.195 120.743,263.590 C 121.324,261.375 121.207,260.568 120.037,258.724 C 117.671,254.994 115.113,248.911 114.373,245.254 C 114.136,244.088 113.855,242.900 113.746,242.616 C 113.376,241.642 112.777,236.377 112.655,233.025 C 112.561,230.437 112.444,229.587 112.141,229.284 C 111.725,228.868 111.428,229.142 104.865,236.019 C 102.581,238.413 99.359,241.231 96.250,243.556 C 93.859,245.344 90.450,247.515 89.908,247.595 C 89.117,247.710 85.061,250.187 84.105,251.137 C 82.990,252.247 82.557,253.530 82.003,257.375 C 81.845,258.475 81.539,260.074 81.323,260.928 C 80.898,262.609 80.967,266.581 81.441,267.750 C 81.580,268.094 81.832,268.994 82.001,269.750 C 82.474,271.873 83.485,274.272 84.370,275.375 C 84.811,275.925 85.305,276.625 85.466,276.931 C 85.808,277.577 88.723,279.949 90,280.620 C 92.298,281.827 93.942,282.595 94.625,282.780 C 95.037,282.891 96.838,282.936 98.625,282.880 C 101.397,282.792 102.206,282.667 104.125,282.027" stroke="#E3E0E1" fill="#E3E0E1" stroke-width="1" />
  <path id="25" d="M 93,291.511 C 92.656,291.395 91.914,291.289 91.350,291.275 C 89.773,291.236 85.688,289.010 83.057,286.754 C 80.490,284.553 78.235,282.273 77.243,280.875 C 75.585,278.538 73.250,273.130 73.250,271.627 C 73.250,271.315 73.055,270.625 72.818,270.093 C 72.189,268.686 72.194,258.441 72.824,256.750 C 73.054,256.131 73.246,255.400 73.250,255.125 C 73.265,254.084 74.189,251.697 74.822,251.064 C 75.466,250.420 75.493,250.416 75.990,250.867 C 76.525,251.350 76.663,252.233 76.267,252.637 C 75.876,253.038 75.225,255.033 74.886,256.875 C 74.702,257.876 74.545,260.871 74.520,263.875 C 74.471,269.651 74.710,271.360 75.852,273.404 C 76.209,274.041 76.500,274.802 76.500,275.094 C 76.501,275.386 76.959,276.286 77.520,277.093 C 78.080,277.901 78.616,278.769 78.710,279.023 C 78.965,279.713 82.680,283.695 83.721,284.392 C 84.218,284.726 85.244,285.452 86,286.005 C 88.345,287.718 90.282,288.678 92,288.976 C 92.894,289.132 94.300,289.391 95.125,289.551 C 95.950,289.712 97.188,289.843 97.875,289.842 C 99.140,289.840 102.644,289.377 104.250,289.001 C 104.731,288.888 105.744,288.659 106.500,288.491 C 107.256,288.324 108.044,288.041 108.250,287.863 C 108.456,287.684 109.356,287.226 110.250,286.843 C 113.126,285.613 118.870,280.522 120.551,277.712 C 120.827,277.252 121.256,276.650 121.504,276.375 C 121.752,276.100 122.471,274.869 123.102,273.639 C 124.123,271.647 124.462,270.719 125.227,267.840 C 125.502,266.802 126.275,265.767 126.782,265.758 C 127.393,265.746 127.832,267.002 127.511,267.845 C 127.368,268.223 127.250,268.813 127.250,269.157 C 127.250,270.033 126.518,272.174 126.099,272.521 C 125.907,272.681 125.750,272.917 125.750,273.047 C 125.750,273.507 124.549,275.898 124.153,276.227 C 123.931,276.411 123.750,276.678 123.750,276.820 C 123.750,276.963 123.326,277.652 122.808,278.352 C 122.289,279.052 121.571,280.082 121.211,280.639 C 119.936,282.616 115.546,286.588 113.500,287.617 C 113.019,287.859 112.344,288.312 112,288.623 C 111.656,288.934 110.786,289.380 110.066,289.613 C 109.345,289.847 108.694,290.138 108.619,290.260 C 108.430,290.565 106.919,291.012 105.125,291.294 C 103.113,291.610 93.786,291.776 93,291.511" stroke="#E3E0E1" fill="#E3E0E1" stroke-width="1" />
  </g><g id="green 1"><path id="6" d="M 95.164,282.241 C 93.935,281.930 91.121,280.545 89.401,279.403 C 88.024,278.489 86.260,276.779 85.113,275.246 C 83.043,272.479 81.577,267.171 81.818,263.309 C 81.997,260.427 82.919,254.871 83.515,253.081 C 84.019,251.567 84.109,251.462 85.905,250.316 C 86.931,249.661 88.301,248.786 88.948,248.373 C 89.596,247.959 91.025,247.064 92.125,246.383 C 94.647,244.823 98.582,241.866 100.585,240.025 C 101.432,239.248 102.575,238.279 103.125,237.872 C 103.675,237.465 105.415,235.865 106.991,234.316 C 108.568,232.768 109.977,231.500 110.123,231.500 C 110.686,230.269 111.938,231.706 111.480,232.101 C 111.672,232.333 111.895,233.696 112.025,235.434 C 112.416,240.681 112.635,241.921 114.156,247.500 C 115.130,251.071 118.873,259.473 119.986,260.586 C 120.131,260.731 120.250,261.194 120.250,261.615 C 120.250,262.804 117.965,269.145 116.707,271.445 C 114.682,275.148 110.839,278.761 107.311,280.279 C 104.090,281.666 101.846,282.224 98.971,282.354 C 97.406,282.425 95.693,282.374 95.164,282.241" stroke="#88C94D" fill="#88C94D" stroke-width="1" />
  <path id="26" d="M 94.625,282.780 C 93.942,282.595 92.298,281.827 90,280.620 C 88.723,279.949 85.808,277.577 85.466,276.931 C 85.305,276.625 84.811,275.925 84.370,275.375 C 83.485,274.272 82.474,271.873 82.001,269.750 C 81.832,268.994 81.580,268.094 81.441,267.750 C 80.967,266.581 80.898,262.609 81.323,260.928 C 81.539,260.074 81.845,258.475 82.003,257.375 C 82.557,253.533 82.990,252.247 84.105,251.132 C 84.666,250.572 85.889,249.694 86.822,249.181 C 87.756,248.668 88.796,248.067 89.135,247.845 C 89.473,247.624 89.750,247.557 89.750,247.697 C 89.750,247.838 89.216,248.263 88.562,248.643 C 87.909,249.023 86.623,249.826 85.704,250.429 C 84.137,251.456 84.001,251.620 83.512,253.089 C 82.919,254.872 81.997,260.432 81.818,263.309 C 81.577,267.171 83.043,272.479 85.113,275.246 C 87.002,277.771 89.196,279.531 92.451,281.135 C 94.898,282.341 96.177,282.574 99.246,282.377 C 101.846,282.210 104.322,281.566 107.311,280.279 C 110.839,278.761 114.682,275.148 116.707,271.445 C 117.965,269.145 120.250,262.804 120.250,261.615 C 120.250,261.194 120.131,260.731 119.986,260.586 C 118.873,259.473 115.130,251.071 114.156,247.500 C 112.638,241.931 112.415,240.677 112.028,235.485 C 111.910,233.895 111.665,232.357 111.484,232.067 C 110.826,230.083 110.826,231.007 110.099,231.500 C 109.939,231.500 108.658,232.653 107.251,234.062 C 105.844,235.472 104.811,236.400 104.954,236.125 C 105.096,235.850 106.680,234.106 108.472,232.250 C 112.513,228.066 112.474,228.060 112.655,233.025 C 112.777,236.377 113.376,241.642 113.746,242.616 C 113.855,242.900 114.136,244.088 114.373,245.254 C 115.113,248.911 117.671,254.994 120.037,258.724 C 121.207,260.568 121.324,261.375 120.743,263.590 C 120.061,266.195 118.963,268.904 117.437,271.750 C 116.022,274.387 113.299,277.453 111.125,278.856 C 108.382,280.626 108.523,280.563 104.125,282.027 C 102.206,282.667 101.397,282.792 98.625,282.880 C 96.838,282.936 95.037,282.891 94.625,282.780" stroke="#D9DDD2" fill="#D9DDD2" stroke-width="1" />
  </g></svg>